<svg id="Layer_1" data-name="Layer 1" xmlns="http://www.w3.org/2000/svg" viewBox="0 0 20 20"><path d="M4.67,19.54a1.36,1.36,0,0,1-.79-.26A1.33,1.33,0,0,1,3.35,18l.9-5.24L.44,9A1.36,1.36,0,0,1,.1,7.65a1.33,1.33,0,0,1,1.09-.91L6.45,6,8.8,1.21a1.34,1.34,0,0,1,2.4,0L13.55,6l5.26.77a1.33,1.33,0,0,1,1.09.91A1.36,1.36,0,0,1,19.56,9l-3.81,3.71.9,5.24a1.34,1.34,0,0,1-1.94,1.41L10,16.91,5.29,19.38A1.25,1.25,0,0,1,4.67,19.54ZM10,15.39a1.35,1.35,0,0,1,.62.15l4.49,2.36-.85-5a1.33,1.33,0,0,1,.38-1.18l3.64-3.54-5-.73a1.35,1.35,0,0,1-1-.73L10,2.16,7.75,6.71a1.34,1.34,0,0,1-1,.74l-5,.73,3.64,3.54a1.33,1.33,0,0,1,.38,1.18l-.85,5,4.49-2.36A1.35,1.35,0,0,1,10,15.39Z"/></svg>